<?xml version="1.0" encoding="UTF-8" standalone="no"?>
<!-- Created with Inkscape (http://www.inkscape.org/) -->

<svg
   xmlns:dc="http://purl.org/dc/elements/1.1/"
   xmlns:cc="http://creativecommons.org/ns#"
   xmlns:rdf="http://www.w3.org/1999/02/22-rdf-syntax-ns#"
   xmlns:svg="http://www.w3.org/2000/svg"
   xmlns="http://www.w3.org/2000/svg"
   xmlns:sodipodi="http://sodipodi.sourceforge.net/DTD/sodipodi-0.dtd"
   xmlns:inkscape="http://www.inkscape.org/namespaces/inkscape"
   width="463"
   height="433"
   id="svg2"
   version="1.1"
   inkscape:version="0.48.1 "
   sodipodi:docname="favicon.svg"
   inkscape:export-filename="C:\Users\Cnidaria\Github\fb-hackathon-2013\favicon.png"
   inkscape:export-xdpi="90"
   inkscape:export-ydpi="90">
  <defs
     id="defs4" />
  <sodipodi:namedview
     id="base"
     pagecolor="#ffffff"
     bordercolor="#666666"
     borderopacity="1.0"
     inkscape:pageopacity="0.0"
     inkscape:pageshadow="2"
     inkscape:zoom="0.78637413"
     inkscape:cx="-119.86684"
     inkscape:cy="183.94441"
     inkscape:document-units="px"
     inkscape:current-layer="layer1"
     showgrid="false"
     showguides="true"
     inkscape:guide-bbox="true"
     inkscape:window-width="1600"
     inkscape:window-height="848"
     inkscape:window-x="-8"
     inkscape:window-y="-8"
     inkscape:window-maximized="1">
    <inkscape:grid
       type="xygrid"
       id="grid3767"
       empspacing="5"
       visible="true"
       enabled="true"
       snapvisiblegridlinesonly="true" />
  </sodipodi:namedview>
  <metadata
     id="metadata7">
    <rdf:RDF>
      <cc:Work
         rdf:about="">
        <dc:format>image/svg+xml</dc:format>
        <dc:type
           rdf:resource="http://purl.org/dc/dcmitype/StillImage" />
        <dc:title />
      </cc:Work>
    </rdf:RDF>
  </metadata>
  <g
     inkscape:label="Layer 1"
     inkscape:groupmode="layer"
     id="layer1"
     transform="translate(0,-619.36218)">
    <rect
       style="fill:#ffff00;fill-opacity:0.52941165;fill-rule:nonzero;stroke:#ffff33;stroke-width:5.00020981;stroke-linecap:square;stroke-linejoin:round;stroke-miterlimit:4;stroke-opacity:0.7037037;stroke-dasharray:none"
       id="rect3903"
       width="334.94592"
       height="322.59387"
       x="-63.796192"
       y="706.68665"
       transform="matrix(0.98789729,-0.15510946,0.16789521,0.98580485,0,0)" />
    <path
       style="fill:#000000;fill-opacity:0.07843137;fill-rule:nonzero;stroke:#000000;stroke-width:2;stroke-linecap:square;stroke-linejoin:bevel;stroke-miterlimit:4;stroke-opacity:0.22751321;stroke-dasharray:none"
       d="m 21.944305,699.63497 14.243227,-0.10701 -9.89776,9.84085 14.243224,-0.10701 -9.897759,9.84085 14.243225,-0.107 -9.89776,9.84085 14.243224,-0.10702 -9.89776,9.84085 74.434704,-30.67254 -14.243239,0.107 9.897779,-9.84082 -14.243238,0.107 9.897758,-9.84085 -14.243213,0.107 9.897763,-9.84084 -14.24323,0.10701 9.89776,-9.84085 -74.434705,30.67253 z"
       id="rect3961"
       inkscape:connector-curvature="0" />
    <path
       style="fill:#ff223b;fill-opacity:0.84656085;fill-rule:nonzero;stroke:#ff223b;stroke-width:5;stroke-linecap:square;stroke-linejoin:bevel;stroke-miterlimit:4;stroke-opacity:0.7037037;stroke-dasharray:none;stroke-dashoffset:0"
       d="m 171.28097,773.54852 c -31.91703,-0.14553 -57.89154,25.64954 -58.01547,57.56666 -0.0422,10.86884 2.88753,21.06567 8.07159,29.77011 0.0484,0.0823 0.10981,0.15946 0.15959,0.24142 24.10352,46.85087 139.36055,43.04733 145.3547,105.43273 0.20822,-0.24106 0.43721,-0.47757 0.64493,-0.71991 l 11.11335,-37.48432 -22.2777,-10.06145 12.70909,-28.1444 -30.77619,-9.99921 16.68202,-23.92939 -29.80053,-15.04144 9.62396,-24.65389 -21.10606,4.61981 9.8729,-27.60809 C 221.87431,792.1441 199.3364,773.6764 171.28097,773.54852 z"
       id="path4050-9"
       inkscape:connector-curvature="0"
       sodipodi:nodetypes="sscccccccccccccs" />
    <path
       style="fill:#ff223b;fill-opacity:0.84656085;fill-rule:nonzero;stroke:#ff223b;stroke-width:5;stroke-linecap:square;stroke-linejoin:bevel;stroke-miterlimit:4;stroke-opacity:0.7037037;stroke-dasharray:none;stroke-dashoffset:0"
       d="m 312.81127,716.05843 c -42.59869,0.26497 -57.57466,63.86872 -57.57466,63.86872 l -9.50267,28.31409 20.15479,-4.20231 -9.06456,23.89092 29.47549,15.45903 -16.24219,23.97691 30.47088,9.9358 -12.00283,28.01998 21.22835,9.84417 -11.11477,39.33727 c 0,0 67.60063,-103.40473 70.8709,-142.98811 3.04789,-36.89169 -4.72518,-95.77977 -56.69873,-95.45647 z"
       id="path4050-2"
       inkscape:connector-curvature="0"
       sodipodi:nodetypes="sccccccccccss" />
    <path
       style="fill:#000000;fill-opacity:0.07843137;fill-rule:nonzero;stroke:#000000;stroke-width:2;stroke-linecap:square;stroke-linejoin:bevel;stroke-miterlimit:4;stroke-opacity:0.22751321;stroke-dasharray:none"
       d="m 426.0525,659.01661 -14.24051,0.29823 10.17372,9.55529 -14.2405,0.29823 10.17371,9.55529 -14.24051,0.29824 10.17371,9.55529 -14.24051,0.29823 10.17371,9.55529 -75.27715,-28.54258 14.24051,-0.29824 -10.17372,-9.55527 14.24051,-0.29824 -10.17371,-9.55529 14.2405,-0.29824 -10.17371,-9.55528 14.2405,-0.29823 -10.17371,-9.55529 75.27716,28.54257 z"
       id="rect3961-1"
       inkscape:connector-curvature="0" />
  </g>
</svg>
